<?xml version="1.0" encoding="utf-8"?>
<!-- Generator: Adobe Illustrator 26.3.1, SVG Export Plug-In . SVG Version: 6.00 Build 0)  -->
<svg version="1.1" id="Layer_1" xmlns="http://www.w3.org/2000/svg" xmlns:xlink="http://www.w3.org/1999/xlink" x="0px" y="0px"
	 viewBox="0 0 198.4 198.4" style="enable-background:new 0 0 198.4 198.4;" xml:space="preserve">
<style type="text/css">
	.st0{fill:#FFFFFF;}
	.st1{font-family:'Missionary-Regular';}
	.st2{font-size:36.3239px;}
	.st3{letter-spacing:1.8;}
	.st4{fill:#4D3725;}
</style>
<text transform="matrix(1.1114 0 0 1 7.926400e-02 119.3509)"><tspan x="0" y="0" class="st0 st1 st2 st3">SERENAR</tspan><tspan x="155.9" y="0" class="st0 st1 st2">A</tspan></text>
<path class="st0" d="M114.7,65.6c0-0.1,0-0.1,0-0.2c-0.1-0.6-0.2-1.2-0.5-1.8c-0.6-1.3-1.5-2.3-2.9-2.7c-0.2-0.1-0.5-0.1-0.7-0.2
	c-0.3-0.1-0.5-0.2-0.5-0.5c-0.1-0.2-0.1-0.5-0.2-0.7c-0.4-1.5-1.4-2.4-2.7-2.9c-0.7-0.3-1.5-0.5-2.3-0.5l0,0c-1.1-2.8-2.4-5.4-5.3-7
	c-2.9,1.7-4.2,4.3-5.3,7l0.1,0c-0.7,0-1.3,0.2-2,0.5C91,57.1,90,58,89.6,59.5c-0.1,0.2-0.1,0.5-0.2,0.7c-0.1,0.3-0.2,0.5-0.5,0.5
	c-0.2,0.1-0.5,0.1-0.7,0.2c-1.5,0.4-2.4,1.4-2.9,2.7c-0.3,0.7-0.4,1.4-0.5,2.1c-2.7,1.1-5.2,2.4-6.8,5.2c1.6,2.9,4.1,4.2,6.8,5.2
	c0,0.3,0,0.6,0.1,0.9c0.1,0.4,0.2,0.8,0.4,1.2c0.6,1.3,1.5,2.3,2.9,2.7c0.2,0.1,0.5,0.1,0.7,0.2c0.3,0.1,0.5,0.2,0.5,0.5
	c0.1,0.2,0.1,0.5,0.2,0.7c0.4,1.5,1.4,2.4,2.7,2.9c0.7,0.3,1.5,0.5,2.2,0.5c1.1,2.7,2.4,5.2,5.2,6.8c2.8-1.6,4.1-4.1,5.2-6.8
	c0.7,0,1.5-0.2,2.2-0.5c1.3-0.6,2.3-1.5,2.7-2.9c0.1-0.2,0.1-0.5,0.2-0.7c0.1-0.3,0.2-0.5,0.5-0.5c0.2-0.1,0.5-0.1,0.7-0.2
	c1.5-0.4,2.4-1.4,2.9-2.7c0.2-0.4,0.3-0.9,0.4-1.4c0-0.1,0-0.2,0-0.3c0,0,0,0,0,0c0-0.2,0-0.4,0-0.6c2.7-1.1,5.2-2.4,6.8-5.2
	C119.8,68,117.3,66.7,114.7,65.6z M107.3,58.6c0.7,0.5,1.1,1.3,1,2v0.6c-0.2,1.1,0.2,1.4,1.2,1.2h0.6c0.7,0,1.5,0.3,2,1
	c1.6,2.2,0.7,5.4-1.8,6.4c-0.4,0.1-0.8,0.2-1.2,0.3c-0.1,0-0.2,0-0.2-0.1c0,0,0-0.1,0.1-0.2c0,0,0.1-0.1,0.1-0.1
	c1.5-1.9,1.7-3.9,0.9-6.1c-0.1-0.2-0.2-0.2-0.4-0.1c-0.4,0.2-0.6,0.6-0.8,1c-0.1,0.2-0.1,0.4-0.1,0.5c0.1,0.7,0.1,1.4-0.1,2.1
	c-0.6,2.1-2.6,3.3-4.6,2.9c0,0,0,0,0,0c0,0-0.1,0-0.1,0c-0.8-0.2-1.5-0.6-2.1-1.1c-0.6-0.6-1-1.3-1.1-2.1c0,0,0-0.1,0-0.1
	c0,0,0,0,0,0c-0.4-2,0.9-4.1,2.9-4.6c0.7-0.2,1.4-0.2,2.1-0.1c0.2,0,0.4,0,0.5-0.1c0.4-0.2,0.8-0.4,1-0.8c0.1-0.2,0.1-0.3-0.1-0.4
	c-2.2-0.9-4.2-0.6-6.1,0.9c0,0-0.1,0.1-0.1,0.1c-0.1,0-0.2,0.1-0.2,0.1c-0.1,0-0.1-0.1-0.1-0.2c0.1-0.4,0.1-0.8,0.3-1.2
	C101.9,57.8,105.2,57,107.3,58.6z M101.6,70.8c0,1.1-0.9,1.9-1.9,1.9c-1,0-1.9-0.9-1.9-1.9c0-1.1,0.9-1.9,1.9-1.9
	C100.8,68.9,101.6,69.8,101.6,70.8z M99.2,51.2c0.2-0.2,0.4-0.2,0.7,0c1.6,1.6,2.6,3.4,3,5.2l0,0.1c-1.3,0.5-2.5,1.4-3.2,2.7
	c-0.8-1.4-2-2.4-3.5-2.8C96.7,54.5,97.6,52.8,99.2,51.2z M87.3,63.4c0.5-0.7,1.3-1.1,2-1h0.6c1,0.2,1.5-0.2,1.2-1.2v-0.6
	c0-0.7,0.3-1.5,1-2c2.2-1.6,5.4-0.7,6.4,1.8c0.1,0.4,0.2,0.8,0.3,1.2c0,0.1,0,0.2-0.1,0.2c0,0-0.1,0-0.2-0.1c0,0-0.1-0.1-0.1-0.1
	c-1.9-1.5-3.9-1.7-6.1-0.9c-0.2,0.1-0.2,0.2-0.1,0.4c0.2,0.4,0.6,0.6,1,0.8c0.2,0.1,0.4,0.1,0.5,0.1c0.7-0.1,1.4-0.1,2.1,0.1
	c2.1,0.6,3.3,2.6,2.9,4.6c0,0,0,0,0,0c0,0,0,0.1,0,0.1c-0.2,0.8-0.6,1.5-1.1,2.1c-0.6,0.6-1.3,1-2.1,1.1c0,0-0.1,0-0.1,0
	c0,0,0,0,0,0c-2,0.4-4-0.9-4.6-2.9c-0.2-0.7-0.2-1.4-0.1-2.1c0-0.2,0-0.4-0.1-0.5c-0.2-0.4-0.4-0.8-0.8-1c-0.2-0.1-0.3-0.1-0.4,0.1
	c-0.9,2.2-0.6,4.2,0.9,6.1c0,0,0.1,0.1,0.1,0.1c0,0.1,0.1,0.2,0.1,0.2c0,0.1-0.1,0.1-0.2,0.1c-0.4-0.1-0.8-0.1-1.2-0.3
	C86.5,68.8,85.6,65.6,87.3,63.4z M85,74.3c-1.8-0.5-3.4-1.4-5-3c-0.2-0.2-0.2-0.4,0-0.7c1.6-1.6,3.2-2.5,5-3
	c0.1,0.4,0.2,0.7,0.3,0.9c0.5,1,1.3,1.8,2.2,2.4C86.4,71.7,85.4,72.9,85,74.3z M92.1,83.3c-0.7-0.5-1.1-1.3-1-2v-0.6
	c0.2-1.1-0.2-1.4-1.2-1.2h-0.6c-0.7,0-1.5-0.3-2-1c-1.6-2.2-0.7-5.4,1.8-6.4c0.4-0.1,0.8-0.2,1.2-0.3c0.1,0,0.2,0,0.2,0.1
	c0,0,0,0.1-0.1,0.2c0,0-0.1,0.1-0.1,0.1c-1.5,1.9-1.7,3.9-0.9,6.1c0.1,0.2,0.2,0.2,0.4,0.1c0.4-0.2,0.6-0.6,0.8-1
	c0.1-0.2,0.1-0.4,0.1-0.5c-0.1-0.7-0.1-1.4,0.1-2.1c0.6-2.1,2.6-3.3,4.6-2.9c0,0,0,0,0,0c0,0,0.1,0,0.1,0c0.8,0.2,1.5,0.6,2.1,1.1
	c0.6,0.6,1,1.3,1.1,2.1c0,0,0,0.1,0,0.1c0,0,0,0,0,0c0.4,2-0.9,4.1-2.9,4.6c-0.7,0.2-1.4,0.2-2.1,0.1c-0.2,0-0.4,0-0.5,0.1
	c-0.4,0.2-0.8,0.4-1,0.8c-0.1,0.2-0.1,0.3,0.1,0.4c2.2,0.9,4.2,0.6,6.1-0.9c0,0,0.1-0.1,0.1-0.1c0.1,0,0.2-0.1,0.2-0.1
	c0.1,0,0.1,0.1,0.1,0.2c-0.1,0.4-0.1,0.8-0.3,1.2C97.5,84.1,94.3,85,92.1,83.3z M100,90.5c-0.2,0.2-0.4,0.2-0.7,0
	c-1.6-1.5-2.5-3.2-3-5c1.4-0.4,2.6-1.4,3.3-2.7c0.7,1.3,1.9,2.3,3.3,2.7C102.6,87.3,101.6,89,100,90.5z M110.2,79.5h-0.6
	c-1-0.2-1.5,0.2-1.2,1.2v0.6c0,0.7-0.3,1.5-1,2c-2.2,1.6-5.4,0.7-6.4-1.8c-0.1-0.4-0.2-0.8-0.3-1.2c0-0.1,0-0.2,0.1-0.2
	c0,0,0.1,0,0.2,0.1c0,0,0.1,0.1,0.1,0.1c1.9,1.5,3.9,1.7,6.1,0.9c0.2-0.1,0.2-0.2,0.1-0.4c-0.2-0.4-0.6-0.6-1-0.8
	c-0.2-0.1-0.4-0.1-0.5-0.1c-0.7,0.1-1.4,0.1-2.1-0.1c-2.1-0.6-3.3-2.6-2.9-4.6c0,0,0,0,0,0c0,0,0-0.1,0-0.1c0.2-0.8,0.6-1.5,1.1-2.1
	c0.6-0.6,1.3-1,2.1-1.1c0,0,0.1,0,0.1,0c0,0,0,0,0,0c2-0.4,4,0.9,4.6,2.9c0.2,0.7,0.2,1.4,0.1,2.1c0,0.2,0,0.4,0.1,0.5
	c0.2,0.4,0.4,0.8,0.8,1c0.2,0.1,0.3,0.1,0.4-0.1c0.9-2.2,0.6-4.2-0.9-6.1c0,0-0.1-0.1-0.1-0.1c0-0.1-0.1-0.2-0.1-0.2
	c0-0.1,0.1-0.1,0.2-0.1c0.4,0.1,0.8,0.1,1.2,0.3c2.5,1,3.4,4.2,1.8,6.4C111.6,79.2,110.9,79.6,110.2,79.5z M119.3,71.2
	c-1.5,1.6-3.2,2.5-4.9,3c0-0.1-0.1-0.2-0.1-0.3c0,0,0,0,0,0c-0.5-1.2-1.3-2.2-2.4-2.9c1-0.6,1.8-1.5,2.3-2.6
	c0.1-0.2,0.2-0.5,0.3-0.8c1.7,0.5,3.4,1.4,4.9,3C119.5,70.7,119.5,70.9,119.3,71.2z"/>
<rect x="0.1" class="st4" width="198.3" height="198.3"/>
<path class="st0" d="M146.3,87.5c0-0.2-0.1-0.4-0.1-0.6c-0.2-1.9-0.6-3.8-1.4-5.7c-1.8-4.3-4.7-7.5-9.3-8.7
	c-0.7-0.2-1.5-0.3-2.2-0.5c-0.9-0.2-1.5-0.8-1.7-1.7c-0.2-0.7-0.3-1.5-0.5-2.2c-1.3-4.6-4.5-7.5-8.7-9.3c-2.4-1-4.8-1.5-7.2-1.5l0,0
	c-3.4-8.7-7.5-17.1-16.8-22.3C89,40.1,84.9,48.4,81.5,57.2l0.2,0c-2.1,0.1-4.2,0.6-6.3,1.5c-4.3,1.8-7.4,4.7-8.7,9.3
	c-0.2,0.7-0.3,1.5-0.5,2.2c-0.2,0.9-0.8,1.5-1.7,1.7c-0.7,0.2-1.5,0.3-2.2,0.5c-4.6,1.3-7.5,4.5-9.3,8.7c-0.9,2.2-1.4,4.5-1.5,6.8
	c-8.5,3.4-16.5,7.5-21.6,16.6c5.1,9.1,13.2,13.2,21.7,16.6c0,1,0.1,2,0.3,2.8c0.2,1.3,0.6,2.5,1.2,3.8c1.8,4.3,4.7,7.5,9.3,8.7
	c0.7,0.2,1.5,0.3,2.2,0.5c0.9,0.2,1.5,0.8,1.7,1.7c0.2,0.7,0.3,1.5,0.5,2.2c1.3,4.6,4.5,7.5,8.7,9.3c2.3,1,4.7,1.5,7,1.5
	c3.4,8.4,7.5,16.4,16.5,21.5c9-5.1,13.1-13.1,16.5-21.5c2.3,0,4.7-0.5,7-1.5c4.3-1.8,7.4-4.7,8.7-9.3c0.2-0.7,0.3-1.5,0.5-2.2
	c0.2-0.9,0.8-1.5,1.7-1.7c0.7-0.2,1.5-0.3,2.2-0.5c4.6-1.3,7.5-4.5,9.3-8.7c0.6-1.4,1-2.9,1.3-4.3c0-0.2,0.1-0.6,0.1-0.9
	c0,0,0,0,0,0c0.1-0.7,0.1-1.3,0.1-1.9c8.4-3.4,16.4-7.5,21.5-16.5C162.7,95,154.7,90.8,146.3,87.5z M123,65.1c2.2,1.7,3.4,4,3.2,6.3
	v1.9c-0.7,3.4,0.7,4.6,4,4h1.9c2.3-0.1,4.6,1,6.3,3.2c5.2,6.9,2.4,17.1-5.7,20.2c-1.2,0.5-2.4,0.6-3.7,0.9c-0.2,0-0.6-0.1-0.7-0.3
	c-0.1-0.2,0.1-0.5,0.2-0.7c0.1-0.1,0.2-0.2,0.3-0.4c4.6-5.9,5.5-12.3,2.7-19.3c-0.3-0.7-0.6-0.7-1.2-0.4c-1.3,0.8-2,2-2.6,3.3
	c-0.2,0.5-0.3,1.1-0.2,1.7c0.4,2.2,0.4,4.4-0.3,6.6c-1.9,6.5-8.3,10.5-14.7,9.3c0,0,0,0,0,0c-0.1,0-0.2,0-0.3-0.1
	c-2.5-0.5-4.7-1.8-6.5-3.6c-1.8-1.8-3-4.1-3.6-6.5c0-0.1,0-0.2-0.1-0.3c0,0,0,0,0,0c-1.2-6.4,2.8-12.9,9.3-14.8
	c2.2-0.6,4.4-0.7,6.6-0.3c0.5,0.1,1.2,0,1.7-0.2c1.3-0.6,2.5-1.3,3.3-2.6c0.3-0.6,0.3-0.9-0.4-1.2c-7-2.8-13.4-1.9-19.3,2.7
	c-0.1,0.1-0.2,0.2-0.4,0.3c-0.2,0.1-0.5,0.2-0.7,0.2c-0.2-0.1-0.3-0.5-0.3-0.7c0.3-1.2,0.5-2.5,0.9-3.7
	C105.9,62.7,116.1,59.9,123,65.1z M104.9,104c0,3.3-2.7,6-6,6c-3.3,0-6-2.7-6-6c0-3.3,2.7-6,6-6C102.2,97.9,104.9,100.6,104.9,104z
	 M97.3,41.5c0.7-0.6,1.4-0.6,2.1,0c5.2,5.1,8.2,10.7,9.6,16.5l0,0.2c-4.2,1.5-7.9,4.4-10.1,8.5c-2.4-4.4-6.5-7.5-11.1-8.8
	C89.1,52.1,92.1,46.6,97.3,41.5z M59.4,80.5c1.7-2.2,4-3.4,6.3-3.2h1.9c3.2,0.6,4.7-0.6,4-4v-1.9c-0.1-2.3,1-4.6,3.2-6.3
	c6.9-5.2,17.1-2.4,20.2,5.7c0.5,1.2,0.6,2.4,0.9,3.7c0,0.2-0.1,0.6-0.3,0.7c-0.2,0.1-0.5-0.1-0.7-0.2c-0.1-0.1-0.2-0.2-0.4-0.3
	c-5.9-4.6-12.3-5.5-19.3-2.7c-0.7,0.3-0.7,0.6-0.4,1.2c0.8,1.3,2,2,3.3,2.6c0.5,0.2,1.1,0.3,1.7,0.2c2.2-0.4,4.4-0.4,6.6,0.3
	c6.5,1.9,10.5,8.3,9.3,14.8c0,0,0,0,0,0c0,0.1,0,0.2-0.1,0.3c-0.5,2.5-1.8,4.7-3.6,6.5c-1.8,1.8-4.1,3.1-6.5,3.6
	c-0.1,0-0.2,0-0.3,0.1c0,0,0,0,0,0c-6.4,1.2-12.8-2.8-14.7-9.3c-0.6-2.2-0.7-4.4-0.3-6.6c0.1-0.5,0-1.2-0.2-1.7
	c-0.6-1.3-1.3-2.5-2.6-3.3c-0.6-0.3-0.9-0.3-1.2,0.4c-2.8,7-1.9,13.4,2.7,19.3c0.1,0.1,0.2,0.2,0.3,0.4c0.1,0.2,0.2,0.5,0.2,0.7
	c-0.1,0.2-0.5,0.3-0.7,0.3c-1.2-0.3-2.5-0.5-3.7-0.9C57,97.6,54.2,87.4,59.4,80.5z M52.2,115c-5.6-1.5-10.9-4.4-15.8-9.4
	c-0.6-0.7-0.6-1.4,0-2.1c5-5,10.3-8,15.9-9.5c0.4,1.2,0.8,2.2,1,2.7c1.6,3.1,4,5.8,7.1,7.7C56.4,106.8,53.5,110.6,52.2,115z
	 M74.7,143.7c-2.2-1.7-3.4-4-3.2-6.3v-1.9c0.7-3.4-0.7-4.6-4-4h-1.9c-2.3,0.1-4.6-1-6.3-3.2c-5.2-6.9-2.4-17.1,5.7-20.2
	c1.2-0.5,2.4-0.6,3.7-0.9c0.2,0,0.6,0.1,0.7,0.3c0.1,0.2-0.1,0.5-0.2,0.7c-0.1,0.1-0.2,0.2-0.3,0.4c-4.6,5.9-5.5,12.3-2.7,19.3
	c0.3,0.7,0.6,0.7,1.2,0.4c1.3-0.8,2-2,2.6-3.3c0.2-0.5,0.3-1.1,0.2-1.7c-0.4-2.2-0.4-4.4,0.3-6.6c1.9-6.5,8.3-10.5,14.7-9.3
	c0,0,0,0,0,0c0.1,0,0.2,0,0.3,0.1c2.5,0.5,4.7,1.8,6.5,3.6c1.8,1.8,3,4.1,3.6,6.5c0,0.1,0,0.2,0.1,0.3c0,0,0,0,0,0
	c1.2,6.4-2.8,12.9-9.3,14.8c-2.2,0.6-4.4,0.7-6.6,0.3c-0.5-0.1-1.2,0-1.7,0.2c-1.3,0.6-2.5,1.3-3.3,2.6c-0.3,0.6-0.3,0.9,0.4,1.2
	c7,2.8,13.4,1.9,19.3-2.7c0.1-0.1,0.2-0.2,0.4-0.3c0.2-0.1,0.5-0.2,0.7-0.2c0.2,0.1,0.3,0.5,0.3,0.7c-0.3,1.2-0.5,2.5-0.9,3.7
	C91.8,146.1,81.6,148.9,74.7,143.7z M99.9,166.5c-0.7,0.6-1.4,0.6-2.1,0c-5-4.9-7.9-10.2-9.4-15.7c4.4-1.4,8.1-4.4,10.4-8.6
	c2.3,4.1,6.1,7.2,10.4,8.6C107.8,156.3,104.9,161.6,99.9,166.5z M132,131.5h-1.9c-3.2-0.6-4.7,0.6-4,4v1.9c0.1,2.3-1,4.6-3.2,6.3
	c-6.9,5.2-17.1,2.4-20.2-5.7c-0.5-1.2-0.6-2.4-0.9-3.7c0-0.2,0.1-0.6,0.3-0.7c0.2-0.1,0.5,0.1,0.7,0.2c0.1,0.1,0.2,0.2,0.4,0.3
	c5.9,4.6,12.3,5.5,19.3,2.7c0.7-0.3,0.7-0.6,0.4-1.2c-0.8-1.3-2-2-3.3-2.6c-0.5-0.2-1.1-0.3-1.7-0.2c-2.2,0.4-4.4,0.4-6.6-0.3
	c-6.5-1.9-10.5-8.3-9.3-14.8c0,0,0,0,0,0c0-0.1,0-0.2,0.1-0.3c0.5-2.5,1.8-4.7,3.6-6.5c1.8-1.8,4.1-3.1,6.5-3.6c0.1,0,0.2,0,0.3-0.1
	c0,0,0,0,0,0c6.4-1.2,12.8,2.8,14.7,9.3c0.6,2.2,0.7,4.4,0.3,6.6c-0.1,0.5,0,1.2,0.2,1.7c0.6,1.3,1.3,2.5,2.6,3.3
	c0.6,0.3,0.9,0.3,1.2-0.4c2.8-7,1.9-13.4-2.7-19.3c-0.1-0.1-0.2-0.2-0.3-0.4c-0.1-0.2-0.2-0.5-0.2-0.7c0.1-0.2,0.5-0.3,0.7-0.3
	c1.2,0.3,2.5,0.5,3.7,0.9c8,3.1,10.9,13.4,5.7,20.2C136.7,130.5,134.4,131.6,132,131.5z M161.1,105c-4.9,5-10.2,8-15.7,9.4
	c-0.1-0.3-0.2-0.6-0.3-0.9c0,0,0,0-0.1,0c-1.5-3.8-4.2-7-7.7-9.1c3.3-2,5.8-4.8,7.3-8.2c0.3-0.5,0.6-1.6,0.9-2.7
	c5.5,1.5,10.7,4.4,15.6,9.4C161.7,103.6,161.7,104.3,161.1,105z"/>
</svg>
